<svg width="181" height="36" viewBox="0 0 181 36" fill="none" xmlns="http://www.w3.org/2000/svg">
<path d="M43.8287 24.1339C42.0833 24.1339 40.6425 23.5521 39.4518 22.4158C38.2882 21.2523 37.7064 19.8115 37.7064 18.0662C37.7064 16.3208 38.2882 14.88 39.479 13.7165C40.6698 12.5529 42.1106 11.9712 43.8287 11.9712C45.7968 11.9712 47.4307 12.6916 48.7329 14.1596L51.6417 11.6939C49.6736 9.45099 46.9034 8.09188 43.8287 8.09188C40.9198 8.09188 38.4813 9.03261 36.4587 10.9463C34.4362 12.8574 33.4385 15.2118 33.4385 18.0662C33.4385 20.9205 34.4362 23.2749 36.4587 25.186C38.4813 27.07 40.9198 28.0107 43.8287 28.0107C46.9034 28.0107 49.7008 26.6813 51.669 24.3815L48.7601 21.9157C47.4579 23.3838 45.824 24.1314 43.8287 24.1314V24.1339ZM59.4251 13.3303C57.2639 13.3303 55.4344 14.0507 53.9119 15.4915C52.4166 16.9051 51.669 18.6504 51.669 20.7274C51.669 22.8045 52.4166 24.5498 53.9119 25.9906C55.4368 27.4042 57.2639 28.1246 59.4251 28.1246C61.5863 28.1246 63.3861 27.4042 64.9111 25.9906C66.436 24.5498 67.1837 22.8045 67.1837 20.7274C67.1837 18.6504 66.436 16.9051 64.9111 15.4915C63.3861 14.0507 61.5591 13.3303 59.4251 13.3303ZM62.0022 23.3318C61.309 24.025 60.45 24.3839 59.4251 24.3839C58.4002 24.3839 57.5411 24.025 56.8479 23.3318C56.1548 22.6386 55.7958 21.7524 55.7958 20.7274C55.7958 19.7025 56.1548 18.8435 56.8479 18.1503C57.5411 17.4299 58.4002 17.0685 59.4251 17.0685C60.45 17.0685 61.309 17.4274 62.0022 18.1503C62.6954 18.8435 63.0543 19.7001 63.0543 20.7274C63.0543 21.7548 62.6929 22.6114 62.0022 23.3318ZM72.3379 22.5272V8.39886H68.2111V23.1659C68.2111 26.4362 69.7905 28.0701 72.9766 28.0701L74.9447 28.0751V24.3295C72.7835 24.3295 72.3404 23.7749 72.3404 22.5297H72.3379V22.5272ZM102.422 22.8045V13.7462H98.2948V21.5865C98.2948 23.2204 97.2427 24.3567 95.7177 24.3567C94.1927 24.3567 93.3064 23.359 93.3064 21.7251V13.7462H89.1796V22.2227C89.1796 25.852 91.1477 28.0132 94.6655 28.0132C96.6881 28.0132 98.072 27.32 98.7652 25.9634C98.9583 26.5452 99.3742 27.0452 100.013 27.4587C100.595 27.7904 101.37 27.9563 102.286 27.9563C103.09 27.9563 103.699 27.8721 104.142 27.7359V24.2998C104.142 24.2998 103.645 24.3022 103.449 24.3022C102.701 24.3022 102.424 23.9111 102.424 22.802L102.422 22.8045ZM113.696 13.4962C111.591 13.4962 109.955 14.3552 109.539 15.5732V8.39886H105.412V27.7087H109.539V25.8792C109.955 27.0972 111.589 27.9563 113.696 27.9563C115.664 27.9563 117.325 27.2631 118.627 25.8792C119.956 24.4656 120.622 22.7476 120.622 20.7274C120.622 18.7073 119.956 16.9868 118.627 15.6029C117.325 14.1893 115.664 13.4986 113.696 13.4986V13.4962ZM115.468 23.2204C114.775 23.8863 113.943 24.2181 112.948 24.2181C111.953 24.2181 111.064 23.8863 110.344 23.2204C109.65 22.5272 109.292 21.6979 109.292 20.7274C109.292 19.757 109.65 18.9277 110.344 18.2617C111.064 17.5686 111.923 17.2368 112.948 17.2368C113.973 17.2368 114.777 17.5686 115.468 18.2617C116.161 18.9252 116.493 19.757 116.493 20.7274C116.493 21.6979 116.161 22.5272 115.468 23.2204ZM129.542 19.4253C127.99 18.8707 126.826 18.6776 126.302 18.4548C125.858 18.2617 125.72 18.0662 125.72 17.7072C125.72 17.1799 126.217 16.8209 127.106 16.8209C128.297 16.8209 129.295 17.1527 130.042 17.8458L132.01 15.1301C130.763 13.9393 129.186 13.3303 127.217 13.3303C125.693 13.3303 124.42 13.719 123.365 14.5211C122.313 15.2959 121.786 16.405 121.786 17.8186C121.786 19.6753 122.865 20.9503 124.999 21.6979C125.415 21.8365 126.051 22.0296 126.883 22.2252C127.715 22.4183 128.27 22.6139 128.574 22.7797C128.879 22.9456 129.044 23.1684 129.044 23.4457C129.044 24.1933 128.351 24.582 126.938 24.582C125.358 24.582 123.89 23.973 123.115 23.057L120.734 25.6069C122.09 27.268 124.113 28.0998 126.829 28.0998C130.928 28.0998 132.978 26.2431 132.978 23.3912C132.978 21.5345 131.842 20.2051 129.542 19.4302V19.4253ZM84.7482 19.4253C83.196 18.8707 82.0324 18.6776 81.5076 18.4548C81.0645 18.2617 80.9258 18.0662 80.9258 17.7072C80.9258 17.1799 81.4234 16.8209 82.3122 16.8209C83.503 16.8209 84.5006 17.1527 85.2483 17.8458L87.2164 15.1301C85.9687 13.9393 84.3917 13.3303 82.4236 13.3303C80.8986 13.3303 79.6261 13.719 78.5715 14.5211C77.5194 15.2959 76.9921 16.405 76.9921 17.8186C76.9921 19.6753 78.0715 20.9503 80.2054 21.6979C80.6213 21.8365 81.2576 22.0296 82.0894 22.2252C82.9212 22.4208 83.4757 22.6139 83.7802 22.7797C84.0847 22.9456 84.2506 23.1684 84.2506 23.4457C84.2506 24.1933 83.5574 24.582 82.1438 24.582C80.5644 24.582 79.0964 23.973 78.3215 23.057L75.9399 25.6069C77.2966 27.268 79.3192 28.0998 82.0349 28.0998C86.1345 28.0998 88.1844 26.2431 88.1844 23.3912C88.1844 21.5345 87.0481 20.2051 84.7482 19.4302V19.4253ZM136.442 12.5554C137.744 12.5554 138.796 11.5305 138.796 10.2283C138.796 8.92616 137.744 7.87402 136.442 7.87402C135.139 7.87402 134.087 8.89893 134.087 10.2283C134.087 11.5577 135.139 12.5554 136.442 12.5554ZM138.925 24.1339C138.761 24.02 138.667 23.8393 138.613 23.6536C138.531 23.3813 138.519 23.0892 138.519 22.807V13.7487H134.392V24.0275C134.392 26.659 135.61 27.9612 138.048 27.9612H139.96V24.3072C139.88 24.3022 139.799 24.2973 139.719 24.2948C139.452 24.2775 139.155 24.2948 138.925 24.1364V24.1339ZM155.695 22.807V8.40133H151.568V15.5757C151.152 14.3577 149.518 13.4986 147.411 13.4986C145.443 13.4986 143.782 14.1918 142.452 15.6029C141.15 16.9893 140.484 18.7049 140.484 20.7274C140.484 22.75 141.15 24.4953 142.452 25.9089C143.782 27.2953 145.445 27.986 147.411 27.986C149.6 27.986 151.125 27.3225 152.038 25.9634C152.231 26.5452 152.647 27.0452 153.286 27.4587C153.868 27.7904 154.642 27.9563 155.558 27.9563C156.363 27.9563 157.415 27.9612 157.415 27.9612V24.2973C157.415 24.2973 156.918 24.2998 156.722 24.2998C155.974 24.2998 155.697 23.9086 155.697 22.7995V22.807H155.695ZM150.736 23.2229C150.043 23.8888 149.184 24.2205 148.159 24.2205C147.134 24.2205 146.329 23.8888 145.639 23.2229C144.945 22.5297 144.614 21.7004 144.614 20.7299C144.614 19.7595 144.945 18.9301 145.639 18.2642C146.332 17.571 147.161 17.2393 148.159 17.2393C149.156 17.2393 150.043 17.571 150.736 18.2642C151.456 18.9277 151.818 19.7595 151.818 20.7299C151.818 21.7004 151.456 22.5297 150.736 23.2229ZM177.832 15.494C176.307 14.0532 174.48 13.3328 172.346 13.3328C170.212 13.3328 168.355 14.0532 166.832 15.494C165.337 16.9076 164.589 18.6529 164.589 20.7299C164.589 22.807 165.337 24.5523 166.832 25.9931C168.357 27.4067 170.184 28.1271 172.346 28.1271C174.507 28.1271 176.307 27.4067 177.832 25.9931C179.357 24.5523 180.104 22.807 180.104 20.7299C180.104 18.6529 179.357 16.9076 177.832 15.494ZM174.923 23.3343C174.23 24.0275 173.37 24.3864 172.346 24.3864C171.321 24.3864 170.462 24.0275 169.768 23.3343C169.075 22.6411 168.716 21.7548 168.716 20.7299C168.716 19.705 169.075 18.846 169.768 18.1528C170.462 17.4324 171.321 17.071 172.346 17.071C173.37 17.071 174.23 17.4299 174.923 18.1528C175.616 18.846 175.975 19.7025 175.975 20.7299C175.975 21.7573 175.613 22.6139 174.923 23.3343ZM160.317 12.5579C161.619 12.5579 162.671 11.533 162.671 10.2308C162.671 8.92864 161.619 7.8765 160.317 7.8765C159.014 7.8765 157.962 8.90141 157.962 10.2308C157.962 11.5602 159.014 12.5579 160.317 12.5579ZM162.8 24.1364C162.636 24.0225 162.542 23.8418 162.488 23.6561C162.406 23.3838 162.394 23.0917 162.394 22.8094V13.7511H158.267V24.0299C158.267 26.6615 159.485 27.9637 161.923 27.9637H163.834V24.3097C163.755 24.3047 163.673 24.2998 163.594 24.2973C163.327 24.28 163.03 24.2973 162.8 24.1389V24.1364Z" fill="#0067B1"/>
<path d="M0 18.0129L7.667 10.3509V25.6676L0 18.0129Z" fill="#FFD000"/>
<path d="M16.4753 26.9992V34.4607L8.63252 26.6031V19.1416L16.4753 26.9992Z" fill="#FFD000"/>
<path d="M9.31081 8.71176L16.4876 1.54484V8.71176H9.31081Z" fill="#FFD000"/>
<path d="M16.4851 9.6674H8.62992V17.5102H16.4851V9.6674Z" fill="#FFD000"/>
<path d="M9.31081 18.4683H16.4876V25.6352L9.31081 18.4683Z" fill="#FFD000"/>
<path d="M33.4383 0.869141L17.4482 16.8617V0.869141H33.4383Z" fill="#FFD000"/>
<path d="M17.4284 35.1316V19.1416L33.4185 35.1316H17.4284Z" fill="#FFD000"/>
</svg>
